<?xml version="1.0" encoding="iso-8859-1"?>
<!-- Generator: Adobe Illustrator 22.0.1, SVG Export Plug-In . SVG Version: 6.00 Build 0)  -->
<svg version="1.1" id="Layer_1" xmlns="http://www.w3.org/2000/svg" xmlns:xlink="http://www.w3.org/1999/xlink" x="0px" y="0px"
	 viewBox="0 0 1920 1080" style="enable-background:new 0 0 1920 1080;" xml:space="preserve">
<pattern  x="-2160.835" y="-5888.56" width="48" height="48" patternUnits="userSpaceOnUse" id="_x36__dpi_10_x25_" viewBox="1.2 -49.2 48 48" style="overflow:visible;">
	<g>
		<rect x="1.2" y="-49.2" style="fill:none;" width="48" height="48"/>
		<g>
			<circle style="fill:#231F20;" cx="25.2" cy="-1.2" r="1.2"/>
			<circle style="fill:#231F20;" cx="49.2" cy="-1.2" r="1.2"/>
			<circle style="fill:#231F20;" cx="25.2" cy="-25.2" r="1.2"/>
			<circle style="fill:#231F20;" cx="49.2" cy="-25.2" r="1.2"/>
			<circle style="fill:#231F20;" cx="37.2" cy="-13.2" r="1.2"/>
			<circle style="fill:#231F20;" cx="13.2" cy="-13.2" r="1.2"/>
			<circle style="fill:#231F20;" cx="37.2" cy="-37.2" r="1.2"/>
			<circle style="fill:#231F20;" cx="13.2" cy="-37.2" r="1.2"/>
		</g>
		<g>
			<circle style="fill:#231F20;" cx="1.2" cy="-1.2" r="1.2"/>
			
				<ellipse transform="matrix(0.1602 -0.9871 0.9871 0.1602 25.8827 -19.9789)" style="fill:#231F20;" cx="1.2" cy="-25.2" rx="1.2" ry="1.2"/>
		</g>
		<g>
			<circle style="fill:#231F20;" cx="25.2" cy="-49.2" r="1.2"/>
			<circle style="fill:#231F20;" cx="49.2" cy="-49.2" r="1.2"/>
		</g>
		<g>
			
				<ellipse transform="matrix(0.1602 -0.9871 0.9871 0.1602 49.5728 -40.1345)" style="fill:#231F20;" cx="1.2" cy="-49.2" rx="1.2" ry="1.2"/>
		</g>
	</g>
</pattern>
<g>
	<path style="opacity:0.4;fill:url(#_x36__dpi_10_x25_);" d="M444.116,490.593c248.725,82.565,438.697-111.105,700.135-103.02
		c261.438,8.086,353.035,181.651,596.993,11.384c216.755-151.281,157.312-401.128-10.192-482.836
		c-175.771-85.74-570.834,35.586-701.273,58.497C888.158-0.505,700.404-9.999,592.609-70.379
		c-130.262-72.967-344.885,35.424-391.48,176.991S195.392,408.027,444.116,490.593z"/>
	<linearGradient id="SVGID_1_" gradientUnits="userSpaceOnUse" x1="184.3215" y1="198.491" x2="1881.4131" y2="198.491">
		<stop  offset="0" style="stop-color:#2E4ABC"/>
		<stop  offset="0.1725" style="stop-color:#314EBE"/>
		<stop  offset="0.3427" style="stop-color:#3B5AC4"/>
		<stop  offset="0.5122" style="stop-color:#4A6ECD"/>
		<stop  offset="0.6812" style="stop-color:#6189DB"/>
		<stop  offset="0.8481" style="stop-color:#7DADEC"/>
		<stop  offset="1" style="stop-color:#9CD4FF"/>
	</linearGradient>
	<path style="opacity:0.1;fill:url(#SVGID_1_);" d="M444.116,490.593c248.725,82.565,438.697-111.105,700.135-103.02
		c261.438,8.086,353.035,181.651,596.993,11.384c216.755-151.281,157.312-401.128-10.192-482.836
		c-175.771-85.74-570.834,35.586-701.273,58.497C888.158-0.505,700.404-9.999,592.609-70.379
		c-130.262-72.967-344.885,35.424-391.48,176.991S195.392,408.027,444.116,490.593z"/>
	
		<linearGradient id="SVGID_2_" gradientUnits="userSpaceOnUse" x1="598.644" y1="1177.7133" x2="1215.8684" y2="1177.7133" gradientTransform="matrix(0.988 0.1543 -0.1543 0.988 158.9355 -58.6441)">
		<stop  offset="0" style="stop-color:#385EFA"/>
		<stop  offset="0.5312" style="stop-color:#1878FB"/>
		<stop  offset="1" style="stop-color:#008CFB"/>
	</linearGradient>
	<path style="opacity:0.6;fill:url(#SVGID_2_);" d="M-31.94,992.87c109.659-95.11,275.357-33.449,414.357-58.537
		c160.144-28.902,296.495-100.145,459.087-147.017c157.825-45.497,383.674,112.637,173.375,328.131
		c-82.823,84.869-157.753,143.279-221.187,250.134c-70.609,118.956-122.051,228.22-257.616,266.125
		C193.734,1727.428-332.348,1253.429-31.94,992.87z"/>
	
		<linearGradient id="SVGID_3_" gradientUnits="userSpaceOnUse" x1="2569.7083" y1="-898.0717" x2="2299.6365" y2="199.1053" gradientTransform="matrix(-0.727 0.6343 -0.6748 -0.7028 3696.8101 -1085.2487)">
		<stop  offset="0" style="stop-color:#385EFA"/>
		<stop  offset="0.6936" style="stop-color:#127DFB"/>
		<stop  offset="1" style="stop-color:#008CFB"/>
	</linearGradient>
	<path style="opacity:0.8;fill:url(#SVGID_3_);" d="M1738.863,1061.889c55.435,93.586,21.398,193.833,87.003,285.838
		c142.829,200.32,410.723,130.718,368.611-84.421c-21.414-109.426-84.788-211.945-92.499-322.93
		c-7.817-112.626,61.058-193.398,81.802-299.071c38.117-194.189-72.576-385.055,9.494-580.84
		c189.266-451.524,0.978-632.923-245.457-421.777c-206.202,176.668-17.702,494.918-276.704,728.125
		C1249.812,746.143,1618.278,858.321,1738.863,1061.889z"/>
	
		<linearGradient id="SVGID_4_" gradientUnits="userSpaceOnUse" x1="534.7801" y1="50.7517" x2="769.8989" y2="829.6238" gradientTransform="matrix(0.9988 -0.0488 0.0488 0.9988 -175.0763 -193.6285)">
		<stop  offset="0" style="stop-color:#385EFA"/>
		<stop  offset="0.5312" style="stop-color:#1878FB"/>
		<stop  offset="1" style="stop-color:#008CFB"/>
	</linearGradient>
	<path style="opacity:0.8;fill:url(#SVGID_4_);" d="M-312.18,55.381c86.793-165.217,223.941-200.201,392.394-202.447
		c144.137-1.922,488.907,64.054,618.403,3.765c129.1-60.104,214.767-162.65,357.85-162.284
		c191.838,0.492,283.411,149.081,280.822,298.402c-3.589,207.037-176.606,318.892-355.198,314.392
		c-147.788-3.722-304.461-10.905-430.2,89.672C436.08,489.517,380.926,662.76,11.291,662.76S-472.709,360.953-312.18,55.381z"/>
</g>
<linearGradient id="SVGID_5_" gradientUnits="userSpaceOnUse" x1="1395" y1="-319.5085" x2="1395" y2="-319.5085">
	<stop  offset="0" style="stop-color:#385EFA"/>
	<stop  offset="0.5312" style="stop-color:#1878FB"/>
	<stop  offset="1" style="stop-color:#008CFB"/>
</linearGradient>
<path style="fill:url(#SVGID_5_);" d="M1395-319.508"/>
</svg>
