<?xml version="1.0" encoding="iso-8859-1"?>
<!-- Generator: Adobe Illustrator 22.0.1, SVG Export Plug-In . SVG Version: 6.00 Build 0)  -->
<svg version="1.1" id="Warstwa_1" xmlns="http://www.w3.org/2000/svg" xmlns:xlink="http://www.w3.org/1999/xlink" x="0px" y="0px"
	 viewBox="0 0 1920 1080" style="enable-background:new 0 0 1920 1080;" xml:space="preserve">
<g>
	<path style="fill:#385EFA;" d="M30.38,0.76c628.582,0,1257.165,0.004,1885.747-0.101c3.945-0.001,5.009,0.565,5.008,4.833
		c-0.133,335.3-0.122,670.6-0.122,1005.9c-2.142-1.331-4.479-2.02-6.958-2.514c-12.796-2.552-24.951-7.061-37.161-11.61
		c-10.844-4.039-20.992-9.39-31.214-14.58c-4.543-2.307-9.453-4.309-13.43-7.561c-2.377-1.943-2.909-1.969-4.628,0.727
		c-3.704,5.809-10.508,7.114-16.277,3.787c-6.14-3.542-9.074-11-7.313-18.8c0.438-1.942,1.579-3.895-0.721-5.426
		c-5.547-3.691-10.44-8.213-15.672-12.301c-10.26-8.016-19.614-17.052-28.842-26.152c-8.506-8.388-16.64-17.196-24.34-26.394
		c-9.21-11.001-18.676-21.784-26.794-33.642c-1.704-2.489-3.295-3.453-6.6-2.664c-22.158,5.293-40.569-7.039-49.438-26.538
		c-7.891-17.348-8.16-34.814-0.824-52.413c0.948-2.275,1.568-4.328,0.11-7.029c-7.793-14.441-15.146-29.119-22.876-43.595
		c-8.12-15.205-17.036-29.917-26.792-44.167c-10.287-15.027-21.549-29.257-33.761-42.678c-10.52-11.561-21.944-22.256-33.832-32.498
		c-13.622-11.735-28.283-21.986-43.194-31.858c-10.071-6.668-20.786-12.475-31.615-17.858c-12.636-6.28-25.555-12.066-38.643-17.341
		c-11.265-4.54-22.83-8.431-34.465-11.936c-13.577-4.09-27.331-7.616-41.088-11.069c-10.237-2.569-20.791-3.493-31.106-5.952
		c-13.712-3.269-27.927-4.03-41.899-5.879c-33.264-4.402-66.921-3.951-100.391-5.979c-14.905-0.903-29.9,0.2-44.879,0.91
		c-40.215,1.907-80.501,1.955-120.61,6.376c-23.571,2.598-47.356,2.689-70.92,6.064c-20.627,2.955-41.596,2.736-62.273,6.064
		c-16.235,2.613-32.793,2.634-49.151,5.043c-21.117,3.11-42.565,3.282-63.803,6.04c-25.359,3.294-51.011,4.035-76.521,6.008
		c-44.578,3.448-89.323,4.522-134.058,3.871c-31.647-0.461-63.306-0.558-94.774-5.152c-16.094-2.35-32.458-2.738-48.378-6.564
		c-9.271-2.229-18.765-3.139-28.092-5.485c-15.061-3.789-30.043-7.715-44.942-12.118c-9.492-2.805-18.734-6.267-27.994-9.613
		c-5.283-1.909-10.696-3.765-15.806-6.179c-13.938-6.585-27.836-13.275-41.125-21.123c-7.875-4.651-16.06-8.924-23.36-14.367
		c-11.279-8.411-22.679-16.683-33.303-25.993c-11.675-10.232-22.81-21.019-33.041-32.607c-13.68-15.494-26.17-31.966-37.789-49.129
		c-14.768-21.816-27.732-44.643-39.107-68.328c-13.091-27.26-23.834-55.477-32.354-84.543c-14.164-48.319-22-97.512-21.638-147.949
		C27.447,32.651,29.247,16.732,30.38,0.76z"/>
	<path style="fill:#385EFA;" d="M1.013,976.962c8.515,1.91,12.337,9.05,16.794,15.34c4.224,5.96,6.723,12.763,8.085,19.919
		c0.507,2.661,1.47,3.38,4.019,2.305c1.553-0.655,3.543-1.033,4.136,1.303c0.54,2.126-1.076,3.22-2.816,3.45
		c-3.547,0.468-3.999,2.519-3.965,5.64c0.19,17.416-5.636,32.504-17.942,44.975c-2.471,2.504-6.368,3.119-8.312,6.309
		C1.013,1043.122,1.013,1010.042,1.013,976.962z"/>
	<path style="fill:#385EFA;" d="M165.063,590.083c-0.115,17.201-5.575,32.42-18.174,44.28c-7.402,6.968-16.8,11.429-27.093,11.264
		c-13.921-0.222-25.552-6.663-33.605-17.874c-14.541-20.243-16.475-42.382-6.025-64.855c9.863-21.21,28.895-32.769,52.429-25.343
		c12.37,3.903,20.464,13.435,26.156,24.738C163.107,570.945,165.106,580.33,165.063,590.083z"/>
	<path style="fill:#385EFA;" d="M565.149,925.295c-5.743,0.202-9.655-3.648-11.386-8.525c-1.544-4.348-3.828-4.795-7.423-4.389
		c-0.999,0.113-2.016,0.069-3.024,0.086c-1.654,0.028-3.148-0.318-3.176-2.339c-0.026-1.893,1.301-2.801,2.986-2.639
		c5.665,0.545,9.405-0.74,11.187-7.171c1.441-5.203,6.385-8.578,11.826-8.175c5.78,0.428,9.834,4.586,11.876,10.052
		c0.958,2.564,1.074,5.318,4.926,4.923c1.145-0.117,1.458,1.109,1.465,2.223c0.009,1.402-0.701,2.538-1.968,2.446
		c-3.535-0.257-3.631,2.373-4.776,4.628C574.506,922.626,570.954,925.442,565.149,925.295z"/>
	<path style="fill:#385EFA;" d="M88.086,388.312c-0.049,10.164-7.575,16.483-13.747,16.269c-6.77-0.235-13.933-6.634-13.562-17.48
		c0.304-8.894,6.266-15.747,13.754-15.695C82.264,371.461,88.287,378.972,88.086,388.312z"/>
	<path style="fill:#385EFA;" d="M1632.39,1053.242c0.165,10.355-7.571,16.964-13.861,16.654
		c-6.581-0.324-13.423-6.302-13.454-16.583c-0.028-9.421,6.061-16.708,13.875-16.588
		C1626.517,1036.842,1632.393,1044.063,1632.39,1053.242z"/>
	<path style="fill:#385EFA;" d="M291.627,551.655c0.024,9.448-5.64,16.171-13.633,16.182c-7.998,0.011-13.676-6.696-13.671-16.148
		c0.005-9.316,5.805-16.222,13.635-16.234C285.796,535.443,291.604,542.325,291.627,551.655z"/>
	<path style="fill:#476AFA;" d="M647.999,913.074c-2.51-0.139-5.021-0.269-7.53-0.422c-1.66-0.101-3.036-0.644-2.997-2.613
		c0.039-1.923,1.335-2.587,3.047-2.529c4.858,0.163,9.714,0.385,14.571,0.565c1.691,0.063,2.37,1.008,2.365,2.587
		c-0.005,1.597-0.726,2.518-2.416,2.513c-2.346-0.007-4.692-0.002-7.038-0.002C648.001,913.141,648,913.107,647.999,913.074z"/>
	<path style="fill:#476AFA;" d="M1336.131,1071.555c-2.341,0-4.682,0.03-7.023-0.011c-1.499-0.026-2.566-0.6-2.644-2.332
		c-0.075-1.663,0.806-2.637,2.309-2.692c5.178-0.188,10.362-0.262,15.544-0.282c1.382-0.005,2.074,1.072,2.155,2.338
		c0.099,1.551-0.675,2.601-2.318,2.639c-2.673,0.061-5.348,0.016-8.022,0.016
		C1336.131,1071.338,1336.131,1071.446,1336.131,1071.555z"/>
	<path style="fill:#476AFA;" d="M787.479,921.349c3.675,1.588,8.667,2.12,13.595,2.981c1.642,0.287,2.103,1.563,1.837,3.071
		c-0.244,1.382-1.219,1.955-2.558,1.89c-5.55-0.269-10.832-1.853-16.096-3.437c-1.256-0.378-1.408-1.574-0.995-2.947
		C783.798,921.125,784.994,921.102,787.479,921.349z"/>
	<path style="fill:#476AFA;" d="M719.471,912.97c2.829,0.298,5.657,0.61,8.488,0.889c1.893,0.187,2.644,1.233,2.368,3.061
		c-0.256,1.696-1.457,2.134-2.933,2.011c-4.67-0.39-9.333-0.876-14.006-1.222c-2.112-0.156-3.093-1.315-2.887-3.225
		c0.214-1.987,1.854-2.083,3.458-1.917c1.832,0.189,3.662,0.389,5.493,0.584C719.458,913.091,719.465,913.031,719.471,912.97z"/>
	<path style="fill:#476AFA;" d="M373.799,928.997c-1.616,0.233-3.039,0.071-3.257-2.021c-0.164-1.568,0.355-2.554,2.026-2.879
		c4.718-0.917,9.421-1.914,14.135-2.848c1.911-0.378,3.346,0.135,3.558,2.332c0.193,1.997-1.127,2.446-2.779,2.788
		C382.935,927.314,378.548,929.041,373.799,928.997z"/>
	<path style="fill:#476AFA;" d="M1020.301,986.985c0.358-2.37,2.128-2.417,3.763-1.734c4.59,1.916,9.012,4.213,13.805,5.673
		c1.686,0.514,1.995,2.222,1.416,3.732c-0.5,1.304-1.683,1.227-2.992,0.967c-5.306-1.057-9.719-4.26-14.738-5.996
		C1020.518,989.267,1020.283,988.14,1020.301,986.985z"/>
	<path style="fill:#476AFA;" d="M1462.345,1043.748c1.685-0.182,2.86-0.096,3.181,1.419c0.304,1.435,0.049,2.921-1.489,3.319
		c-4.99,1.292-9.333,4.347-14.487,5.172c-1.513,0.242-2.765,0.078-3.267-1.479c-0.375-1.163-0.235-2.549,1.064-3.038
		C1452.451,1047.22,1457.608,1045.438,1462.345,1043.748z"/>
	<path style="fill:#476AFA;" d="M397.377,925.225c-1.042,0.096-2.46-0.082-2.695-2.157c-0.255-2.25,1.022-2.856,2.972-3.059
		c4.498-0.467,8.982-1.074,13.474-1.604c1.63-0.192,3.169-0.019,3.283,2.063c0.108,1.966-0.841,2.939-2.96,3.121
		C406.947,923.975,402.465,924.617,397.377,925.225z"/>
	<path style="fill:#476AFA;" d="M671.791,909.162c2.35,0,4.7-0.033,7.049,0.01c2.232,0.041,2.846,1.751,2.801,3.431
		c-0.049,1.836-1.735,1.724-3.08,1.663c-4.529-0.203-9.058-0.424-13.584-0.683c-1.551-0.089-3.12-0.285-3.065-2.443
		c0.056-2.207,1.359-2.871,3.345-2.71c2.176,0.177,4.354,0.336,6.531,0.503C671.79,909.01,671.79,909.086,671.791,909.162z"/>
	<path style="fill:#476AFA;" d="M326.242,936.731c-2.388,0.121-3.782-0.002-3.981-1.777c-0.161-1.436,0.344-2.788,1.942-3.058
		c5.111-0.863,10.237-1.641,15.369-2.363c1.29-0.182,2.467,0.465,2.481,1.857c0.016,1.508-0.424,2.947-2.379,3.237
		C334.876,935.337,330.089,936.124,326.242,936.731z"/>
	<path style="fill:#476AFA;" d="M134.6,983.964c-1.467,0.199-2.706-0.062-2.913-1.861c-0.212-1.838,0.744-2.658,2.433-3.232
		c4.722-1.605,9.941-1.524,14.299-4.444c1.468-0.983,1.928,0.851,2.424,1.773c0.65,1.208,0.373,2.373-1.042,2.852
		C144.759,980.759,140.017,983.39,134.6,983.964z"/>
	<path style="fill:#476AFA;" d="M1062.465,1003.505c-0.157,2.532-1.98,2.885-3.493,1.842c-4.078-2.811-8.841-3.771-13.307-5.526
		c-1.874-0.736-2.599-2.19-1.991-3.963c0.562-1.638,1.984-1.233,3.405-0.935c5.143,1.079,9.263,4.472,14.155,6.101
		C1062.342,1001.394,1062.61,1002.398,1062.465,1003.505z"/>
	<path style="fill:#476AFA;" d="M1287.084,1065.012c2.674,0.224,5.349,0.425,8.02,0.681c1.602,0.154,3.028,0.572,2.905,2.654
		c-0.116,1.968-1.367,2.551-3.084,2.453c-4.353-0.25-8.702-0.564-13.055-0.807c-2.162-0.121-3.691-1.446-3.698-3.308
		c-0.01-2.471,2.294-1.832,3.879-1.819c1.676,0.013,3.351,0.151,5.026,0.235C1287.079,1065.071,1287.081,1065.042,1287.084,1065.012
		z"/>
	<path style="fill:#476AFA;" d="M1269.828,1067.962c-4.374-0.498-8.525-0.943-12.668-1.454c-1.698-0.209-3.474-0.499-3.224-2.887
		c0.239-2.28,1.844-2.593,3.659-2.241c4.377,0.847,8.992,0.225,13.179,2.4c1.277,0.664,3.341,0.436,2.94,2.527
		C1273.28,1068.568,1271.219,1067.982,1269.828,1067.962z"/>
	<path style="fill:#476AFA;" d="M1113.368,1023.7c6.913,1.089,12.019,3.886,17.254,6.298c1.194,0.55,0.75,1.972,0.264,3.142
		c-0.472,1.138-1.346,1.86-2.257,1.176c-4.147-3.11-9.316-3.366-13.913-5.193c-1.89-0.751-2.598-2.063-2.446-3.797
		C1112.356,1024.323,1113.355,1023.7,1113.368,1023.7z"/>
	<path style="fill:#476AFA;" d="M762.785,918.256c4.18,0.532,8.499,1.088,12.821,1.627c1.785,0.223,3.41,0.632,3.182,2.955
		c-0.232,2.368-1.928,2.399-3.708,2.178c-4.322-0.536-8.63-1.25-12.968-1.571c-2.202-0.163-3.107-1.451-3.149-3.104
		C758.898,917.86,760.987,918.232,762.785,918.256z"/>
	<path style="fill:#476AFA;" d="M1175.001,1048.881c-5.179-0.668-9.925-2.697-14.678-4.694c-0.961-0.404-1.877-1.108-1.514-2.282
		c0.358-1.157,1.179-2.051,2.624-1.69c4.888,1.223,9.771,2.463,14.655,3.702c1.826,0.463,2.442,1.866,2.138,3.468
		C1177.903,1049.084,1176.419,1049.12,1175.001,1048.881z"/>
	<path style="fill:#476AFA;" d="M1092.162,1014.173c4.745,1.979,9.973,4.036,15.071,6.378c1.2,0.552,1.437,2.25,0.746,3.556
		c-0.682,1.29-1.869,0.96-3.092,0.738c-5.172-0.94-9.301-4.32-14.175-5.957c-1.516-0.509-1.729-1.925-1.368-3.367
		C1089.648,1014.31,1090.565,1014.044,1092.162,1014.173z"/>
	<path style="fill:#476AFA;" d="M206.788,963.962c-2.578,0.301-3.712,0.047-4.059-1.725c-0.332-1.691,0.482-2.803,1.901-2.997
		c4.989-0.679,9.436-3.108,14.286-4.194c1.453-0.326,2.768-0.263,3.324,1.327c0.482,1.377,0.285,2.91-1.286,3.331
		C215.841,961.077,210.58,961.915,206.788,963.962z"/>
	<path style="fill:#476AFA;" d="M230.605,957.901c-2.274,0.278-3.477,0.288-3.846-1.236c-0.335-1.383-0.37-2.773,1.316-3.343
		c5.045-1.706,10.041-3.612,15.388-4.207c1.27-0.141,2.385,0.194,2.663,1.669c0.275,1.462,0.03,2.84-1.649,3.172
		C239.405,954.959,234.445,956.341,230.605,957.901z"/>
	<path style="fill:#476AFA;" d="M1223.024,1060.763c-5.163-0.963-9.617-1.875-14.103-2.595c-2.168-0.348-2.923-1.805-2.718-3.519
		c0.247-2.071,2.095-1.834,3.608-1.565c4.473,0.796,8.924,1.725,13.406,2.463c1.938,0.319,2.578,1.574,2.465,3.156
		C1225.537,1060.737,1224.026,1060.977,1223.024,1060.763z"/>
	<path style="fill:#476AFA;" d="M1198.726,1055.244c-4.515-1.006-9.247-2.129-14.012-3.089c-1.999-0.402-2.36-1.856-2.224-3.322
		c0.194-2.094,1.816-2.023,3.432-1.67c4.26,0.931,8.539,1.777,12.781,2.78c1.93,0.456,3.267,1.823,3.108,3.857
		C1201.69,1055.331,1200.146,1055.114,1198.726,1055.244z"/>
	<path style="fill:#476AFA;" d="M500.803,914.32c-2.187,0.139-4.373,0.319-6.562,0.401c-1.054,0.04-2.082-0.303-2.486-1.374
		c-0.55-1.456,0.648-1.964,1.556-2.744c1.584-1.36,3.445-1.223,5.266-1.316c3.368-0.173,6.741-0.251,10.112-0.365
		c1.503-0.051,2.56,0.323,2.758,2.13c0.223,2.035-0.826,2.855-2.557,2.927c-2.691,0.112-5.39,0.03-8.085,0.03
		C500.804,914.113,500.804,914.217,500.803,914.32z"/>
	<path style="fill:#476AFA;" d="M1150.998,1041.88c-4.406-1.604-9.411-3.356-14.353-5.268c-1.522-0.589-1.625-2.077-1.079-3.432
		c0.519-1.29,1.717-1.72,2.925-1.174c4.848,2.192,9.891,3.802,14.958,5.384c1.56,0.487,1.586,2.042,1.131,3.425
		C1154.08,1042.335,1152.8,1042.043,1150.998,1041.88z"/>
	<path style="fill:#476AFA;" d="M1488.641,1036.989c-0.611,1.794-2.161,3.012-3.717,3.656c-3.881,1.606-7.92,2.843-11.932,4.113
		c-1.274,0.403-2.804,0.656-3.411-1.098c-0.508-1.47,0.695-2.029,1.688-2.699c4.229-2.853,9.172-3.933,13.854-5.664
		C1486.832,1034.666,1488.076,1034.901,1488.641,1036.989z"/>
	<path style="fill:#476AFA;" d="M1516.651,1024.552c-0.916-0.033-1.646-0.352-1.861-1.331c-0.303-1.382-0.305-2.752,1.095-3.553
		c4.457-2.55,8.948-5.04,13.426-7.554c0.92-0.516,1.863-0.852,2.78-0.047c0.654,0.575,1.023,1.223,0.659,2.2
		C1532.095,1016.021,1518.645,1024.689,1516.651,1024.552z"/>
	<path style="fill:#476AFA;" d="M823.567,932.806c-4.499-0.725-9.104-1.515-13.726-2.191c-2.04-0.298-3.087-1.274-2.661-3.346
		c0.412-2.003,2.022-2.037,3.555-1.704c4.668,1.015,9.323,2.093,13.964,3.225c1.324,0.323,2.793,0.967,2.115,2.695
		C826.341,932.689,825.318,933.776,823.567,932.806z"/>
	<path style="fill:#476AFA;" d="M871.574,943.292c-4.425-0.867-8.829-1.873-13.283-2.547c-2.401-0.363-3.261-1.9-2.992-3.746
		c0.283-1.944,2.201-1.684,3.7-1.397c4.428,0.846,8.835,1.807,13.271,2.608c2.163,0.391,2.776,1.91,2.511,3.618
		C874.531,943.451,873.007,943.583,871.574,943.292z"/>
	<path style="fill:#476AFA;" d="M895.088,949.056c-3.924-0.802-8.224-1.594-12.476-2.588c-1.845-0.431-3.692-1.768-3.394-3.67
		c0.437-2.792,2.915-1.55,4.541-1.268c4.136,0.716,8.225,1.705,12.346,2.514c2.073,0.407,2.836,1.801,2.515,3.611
		C898.328,949.296,896.929,949.546,895.088,949.056z"/>
	<path style="fill:#476AFA;" d="M920.137,955.688c-5.188-1.179-9.277-2.08-13.35-3.045c-2.087-0.494-4.087-1.753-3.666-3.944
		c0.526-2.735,3.015-1.366,4.621-1.055c4.107,0.795,8.156,1.879,12.241,2.79c2.104,0.469,2.676,2.052,2.344,3.746
		C921.998,955.857,920.406,955.734,920.137,955.688z"/>
	<path style="fill:#476AFA;" d="M1574.089,982.964c0,0.498,0.02,0.663-0.003,0.821c-0.291,2.007-12.963,12.725-15.011,12.482
		c-3.22-0.382-2.336-2.772-1.108-3.928c4.2-3.956,8.507-7.853,13.521-10.802C1573.298,980.473,1573.404,982.443,1574.089,982.964z"
		/>
	<path style="fill:#476AFA;" d="M182.405,970.548c-2.079,0.139-3.059-0.313-3.276-1.749c-0.214-1.414-0.098-2.669,1.61-3.176
		c4.909-1.459,9.796-2.989,14.71-4.428c1.459-0.427,2.723-0.064,3.029,1.654c0.209,1.169,0.267,2.598-1.18,2.94
		C191.977,967.05,186.823,968.823,182.405,970.548z"/>
	<path style="fill:#476AFA;" d="M953.919,960.735c4.274,1.524,9.612,3.336,14.864,5.369c1.223,0.473,1.182,1.959,0.722,3.126
		c-0.523,1.328-1.657,1.721-2.897,1.212c-4.917-2.018-9.908-3.787-15.049-5.164c-1.231-0.33-1.718-1.629-1.419-2.911
		C950.452,961.032,951.444,960.491,953.919,960.735z"/>
	<path style="fill:#476AFA;" d="M989.703,977.907c-5.284-0.451-9.523-3.784-14.481-5.162c-1.53-0.426-1.603-1.805-1.177-3.326
		c0.438-1.561,1.651-2.059,2.603-1.414c4.421,2.992,9.71,3.34,14.52,5.107c1.681,0.618,2.37,1.928,1.863,3.58
		C992.522,978.355,991.049,978.205,989.703,977.907z"/>
	<path style="fill:#476AFA;" d="M104.248,991.78c-0.002,1.702-0.891,2.395-2.089,2.782c-4.558,1.473-9.321,2.305-13.581,4.721
		c-1.217,0.69-3.043,1.039-3.649-1.158c-0.473-1.717,0.095-2.938,1.848-3.542c4.528-1.559,9.047-3.145,13.576-4.704
		C102.45,989.157,104.01,989.452,104.248,991.78z"/>
	<path style="fill:#476AFA;" d="M80.701,999.927c-0.034,0.934-0.555,1.729-1.346,1.94c-4.971,1.328-9.267,4.458-14.398,5.336
		c-1.543,0.264-3.212,0.566-3.584-1.516c-0.285-1.595,0.327-2.864,2.143-3.446c4.715-1.511,9.631-2.347,14.038-4.911
		C79.548,996.169,80.402,998.109,80.701,999.927z"/>
	<path style="fill:#476AFA;" d="M1360.001,1070.598c-2.173,0.135-4.344,0.314-6.519,0.391c-1.516,0.054-2.568-0.547-2.717-2.255
		c-0.169-1.932,0.755-2.735,2.598-2.844c4.684-0.277,9.364-0.619,14.047-0.907c1.371-0.084,3.012-0.082,2.993,1.74
		c-0.017,1.658-0.628,3.312-2.877,3.379c-2.512,0.075-5.021,0.241-7.532,0.368
		C1359.996,1070.512,1359.998,1070.555,1360.001,1070.598z"/>
	<path style="fill:#476AFA;" d="M158.014,977.092c-1.337,0.162-2.4-0.309-2.758-1.612c-0.409-1.488,0.258-2.857,1.676-3.221
		c4.959-1.273,9.957-2.345,14.669-4.473c1.237-0.559,2.598-0.271,3.086,1.543c0.366,1.36,0.14,2.648-1.105,2.893
		C168.202,973.279,163.511,976.487,158.014,977.092z"/>
	<path style="fill:#476AFA;" d="M1538.192,1011.595c-0.693-0.053-1.553-0.121-1.794-1.16c-0.313-1.352-0.325-2.508,0.939-3.606
		c4.127-3.587,9.342-5.636,13.252-9.533c0.684-0.682,2.068-0.806,2.691,0.193c0.473,0.758,0.584,1.892,0.484,2.818
		C1553.653,1001.339,1539.451,1011.538,1538.192,1011.595z"/>
	<path style="fill:#476AFA;" d="M57.388,1007.781c-0.346,1.456-1.348,2.861-2.604,3.306c-4.553,1.613-9.222,2.906-13.868,4.246
		c-0.966,0.278-2.039,0.227-2.588-0.906c-0.647-1.334,0.026-2.185,1.099-2.907c4.644-3.126,10.084-4.042,15.322-5.497
		C56.013,1005.671,57.029,1006.27,57.388,1007.781z"/>
	<path style="fill:#476AFA;" d="M349.183,932.347c-1.079,0.065-2.499-0.002-2.749-1.768c-0.206-1.456,0.941-1.807,2.093-2.331
		c4.501-2.046,9.346-2.283,14.115-2.932c1.769-0.241,3.536-0.145,3.675,2.218c0.11,1.864-1.142,2.617-2.845,2.845
		C358.817,931.003,354.166,931.658,349.183,932.347z"/>
	<path style="fill:#476AFA;" d="M458.045,913.042c0.493,0,1.33-0.008,2.166,0.002c1.455,0.016,2.663,0.281,2.7,2.156
		c0.037,1.875-0.879,2.783-2.665,2.929c-4.673,0.383-9.345,0.762-14.02,1.123c-1.64,0.126-3.098-0.151-3.2-2.205
		c-0.108-2.172,1.186-2.817,3.161-2.947C450.029,913.849,453.86,913.426,458.045,913.042z"/>
	<path style="fill:#476AFA;" d="M1312.045,1071.183c-2.342,0-4.684,0.017-7.026-0.005c-1.775-0.017-2.865-0.774-2.77-2.725
		c0.082-1.676,1.07-2.373,2.623-2.348c4.851,0.076,9.702,0.148,14.551,0.311c1.673,0.056,2.967,0.856,2.861,2.766
		c-0.109,1.98-1.57,2.328-3.214,2.323c-2.342-0.007-4.683-0.002-7.025-0.002C1312.045,1071.396,1312.045,1071.29,1312.045,1071.183z
		"/>
	<path style="fill:#476AFA;" d="M270.244,945.581c-0.088,2.129-1.283,2.681-2.896,3.137c-4.599,1.3-9.604,0.884-13.904,3.55
		c-1.623,1.006-2.237-0.821-2.845-1.928c-0.75-1.365,0-2.497,1.215-2.716c5.215-0.939,9.947-3.641,15.285-4.085
		C268.859,943.393,270.001,943.981,270.244,945.581z"/>
	<path style="fill:#476AFA;" d="M278.403,946.775c-2.229,0.05-3.607,0.318-3.969-1.631c-0.345-1.854,0.333-3.071,2.113-3.324
		c4.628-0.657,9.088-1.886,13.528-3.312c1.475-0.474,3.422-0.855,3.818,1.777c0.355,2.357-1.071,3-2.883,3.192
		C286.355,943.969,281.969,945.51,278.403,946.775z"/>
	<path style="fill:#476AFA;" d="M1068.25,1003.608c5.07,3.959,11.829,3.583,16.277,7.975c0.796,0.786,1.287,1.586,0.589,2.619
		c-0.633,0.937-1.539,1.177-2.639,0.822c-5.232-1.69-10.338-3.655-14.99-6.65c-0.977-0.629-1.435-1.484-0.894-2.536
		C1067.016,1005.014,1067.703,1004.326,1068.25,1003.608z"/>
	<path style="fill:#476AFA;" d="M1627.8,924.898c-0.551,4.417-4.543,6.34-6.191,9.839c-0.966,2.051-3.252,3.298-4.295,5.51
		c-0.612,1.298-2.082,1.974-3.407,1.009c-1.266-0.922-1.164-2.555-0.35-3.654c3.367-4.548,6.887-8.982,10.362-13.449
		c0.674-0.867,1.575-1.269,2.66-0.944C1627.515,923.49,1627.798,924.258,1627.8,924.898z"/>
	<path style="fill:#476AFA;" d="M741.676,915.155c3.607-0.876,6.939,1.977,10.812,2.118c1.359,0.049,2.178,0.978,1.931,2.397
		c-0.261,1.499-1.515,1.695-2.733,1.582c-4.857-0.454-9.715-0.916-14.559-1.494c-1.671-0.2-2.77-1.048-2.351-3.094
		c0.359-1.758,1.448-2.086,2.95-1.933C738.897,914.851,740.068,914.982,741.676,915.155z"/>
	<path style="fill:#476AFA;" d="M1403.124,1065.04c-2.289,0.239-3.92,0.306-4.333-1.654c-0.37-1.758,0.573-2.961,2.319-3.252
		c4.951-0.826,9.914-1.588,14.882-2.299c1.246-0.178,2.396,0.188,2.576,1.713c0.146,1.235-0.745,1.88-1.713,2.153
		C1412.086,1063.044,1407.456,1064.998,1403.124,1065.04z"/>
	<path style="fill:#476AFA;" d="M1656.135,878.803c-0.861,1.71-1.894,3.799-2.96,5.871c-1.673,3.253-3.342,6.508-5.067,9.733
		c-0.654,1.223-1.549,2.327-3.17,1.757c-1.768-0.621-1.591-2.265-1.023-3.375c2.654-5.185,5.471-10.288,8.318-15.371
		c0.56-1,1.448-1.982,2.869-1.194C1655.91,876.673,1656.178,877.45,1656.135,878.803z"/>
	<path style="fill:#476AFA;" d="M1667.599,853.483c-2.294,5.241-4.917,11.336-7.652,17.38c-0.47,1.039-1.785,1.238-2.617,0.602
		c-1.447-1.105-1.019-2.784-0.445-4.14c2.144-5.068,4.429-10.076,6.651-15.112c0.133-0.301,0.15-0.65,0.258-0.964
		c0.368-1.064,1.118-1.767,2.242-1.486C1667.376,850.099,1667.731,851.233,1667.599,853.483z"/>
	<path style="fill:#476AFA;" d="M1611.293,945.693c-0.177,2.891-2.326,3.745-3.482,5.312c-2.452,3.324-4.984,6.586-8.131,9.299
		c-0.878,0.757-1.871,1.613-3.104,0.708c-1.169-0.857-1.157-2.064-0.311-3.074c3.913-4.671,7.869-9.307,11.879-13.896
		c0.571-0.653,1.566-0.612,2.293-0.034C1611.133,944.562,1611.348,945.379,1611.293,945.693z"/>
	<path style="fill:#476AFA;" d="M111.376,991.203c-1.505-0.016-2.639,0.06-2.956-1.188c-0.419-1.646,0.317-3.297,1.71-3.733
		c4.931-1.542,9.96-2.775,14.975-4.037c1.05-0.264,2.041,0.262,2.385,1.349c0.341,1.076-0.25,1.796-1.154,2.47
		C121.74,989.495,115.987,989.356,111.376,991.203z"/>
	<path style="fill:#476AFA;" d="M1495.65,1035.796c-1.908,0.162-2.861-0.016-3.198-1.237c-0.397-1.437-0.192-2.968,1.275-3.403
		c5-1.482,8.853-5.235,13.811-6.754c1.179-0.361,2.377-0.687,3.126,0.559c0.651,1.082,0.564,2.788-0.281,3.278
		C1505.383,1031.137,1499.81,1032.902,1495.65,1035.796z"/>
	<path style="fill:#476AFA;" d="M1245.564,1065.125c-4.557-0.719-9.237-1.025-13.602-2.993c-1.257-0.567-2.121-1.156-1.857-2.512
		c0.275-1.416,1.451-1.735,2.742-1.553c4.836,0.679,9.674,1.354,14.502,2.087c1.801,0.273,2.663,1.431,2.325,3.233
		C1249.203,1065.903,1247.189,1065.028,1245.564,1065.125z"/>
	<path style="fill:#476AFA;" d="M1016.451,984.481c-0.43,1.835-1.755,2.032-3.155,1.625c-4.527-1.316-9.055-2.644-13.513-4.171
		c-1.65-0.565-2.877-2.103-2.376-3.895c0.583-2.084,2.505-1.333,3.849-0.907c4.427,1.402,9.05,2.299,13.024,4.945
		C1015.265,982.734,1016.447,983.063,1016.451,984.481z"/>
	<path style="fill:#476AFA;" d="M834.355,930.331c4.562,0.764,8.876,1.354,13.123,2.259c1.782,0.379,3.624,1.624,3.242,3.715
		c-0.443,2.428-2.625,1.462-4.149,1.238c-4.134-0.606-8.239-1.412-12.373-2.022c-1.965-0.29-3.116-1.1-2.924-3.229
		C831.476,930.057,833.135,930.358,834.355,930.331z"/>
	<path style="fill:#476AFA;" d="M478.019,911.558c2.345-0.116,4.69-0.295,7.036-0.32c1.08-0.011,1.943,0.593,2.05,1.783
		c0.105,1.159-0.5,1.998-1.637,2.15c-4.949,0.663-9.71,2.431-14.835,2.188c-2.147-0.102-3.201-0.911-3.273-2.798
		c-0.076-1.982,1.488-2.34,3.127-2.415c2.515-0.115,5.027-0.277,7.541-0.419C478.025,911.671,478.022,911.615,478.019,911.558z"/>
	<path style="fill:#476AFA;" d="M693.77,911.017c3.167,0.282,6.335,0.554,9.501,0.851c1.364,0.128,2.959,0.296,2.681,2.152
		c-0.212,1.417-0.889,3.299-2.742,2.908c-5.053-1.067-10.12-1.846-15.277-2.142c-1.032-0.059-1.792-0.919-1.701-2.122
		c0.119-1.565,1.247-1.823,2.512-1.78c1.673,0.057,3.344,0.167,5.016,0.254C693.763,911.098,693.766,911.057,693.77,911.017z"/>
	<path style="fill:#476AFA;" d="M1378.96,1068.079c-1.356-0.166-3.59,0.886-3.943-1.572c-0.346-2.409,1.78-2.215,3.428-2.582
		c3.885-0.866,7.648-2.272,11.713-2.287c1.76-0.007,3.868-1.06,4.343,1.797c0.519,3.118-1.961,3.083-3.856,3.348
		C1386.823,1067.315,1382.973,1067.646,1378.96,1068.079z"/>
	<path style="fill:#476AFA;" d="M945.969,960.735c-0.507,1.391-1.739,2.636-3.295,1.925c-4.456-2.036-9.296-2.542-13.907-3.918
		c-1.792-0.535-2.464-1.706-2.135-3.379c0.408-2.077,2.065-1.826,3.579-1.577c4.926,0.811,9.448,2.873,14.081,4.592
		C945.301,958.752,946.075,959.286,945.969,960.735z"/>
	<path style="fill:#476AFA;" d="M1593.267,966.154c-0.389,0.54-0.824,1.237-1.349,1.86c-3.321,3.945-7.062,7.459-11.09,10.666
		c-1.105,0.88-2.38,1.525-3.556,0.169c-1.01-1.165-0.257-2.157,0.58-3.076c3.803-4.172,7.639-8.331,12.305-11.553
		C1591.772,963.105,1593.02,963.852,1593.267,966.154z"/>
	<path style="fill:#476AFA;" d="M1631.185,919.697c-2.612-0.546-2.304-2.629-1.542-3.902c2.973-4.967,6.235-9.763,9.454-14.58
		c0.561-0.839,1.481-1.451,2.594-0.92c1.066,0.509,1.395,1.543,0.986,2.533c-2.482,6.001-6.542,11.032-10.206,16.301
		C1632.234,919.47,1631.592,919.528,1631.185,919.697z"/>
	<path style="fill:#476AFA;" d="M1425.784,1060.053c-1.751,0.054-2.96-0.217-3.066-2.069c-0.091-1.584,0.554-2.609,2.109-2.953
		c4.765-1.056,9.53-2.111,14.309-3.096c1.167-0.24,2.486-0.251,2.898,1.248c0.38,1.382-0.502,2.069-1.653,2.702
		C1435.739,1058.439,1430.568,1059.023,1425.784,1060.053z"/>
	<path style="fill:#476AFA;" d="M302.067,941.53c-2.123,0.297-3.488,0.08-3.829-1.56c-0.358-1.721,0.483-3.015,2.24-3.314
		c4.938-0.841,9.891-1.605,14.851-2.306c1.171-0.166,2.432,0.023,2.618,1.613c0.138,1.187-0.573,1.949-1.607,2.225
		C311.4,939.508,306.621,941.548,302.067,941.53z"/>
	<path style="fill:#476AFA;" d="M423.717,921.378c-1.646-0.45-4.647,1.486-4.688-1.842c-0.035-2.86,2.904-2.233,4.756-2.31
		c3.87-0.161,7.253-2.579,11.262-2.161c1.766,0.184,3.43-0.018,3.568,2.375c0.138,2.385-1.53,2.653-3.301,2.82
		C431.468,920.623,427.622,921.001,423.717,921.378z"/>
	<path style="fill:#476AFA;" d="M598.98,911.993c-2.361,0-4.721,0.008-7.081-0.003c-1.781-0.008-2.874-0.8-2.977-2.681
		c-0.12-2.174,1.352-2.435,2.981-2.433c4.721,0.006,9.442,0.028,14.162,0.069c1.463,0.013,2.68,0.351,2.714,2.212
		c0.035,1.892-0.886,2.827-2.719,2.857c-2.359,0.039-4.72,0.009-7.08,0.009C598.98,912.014,598.98,912.003,598.98,911.993z"/>
	<path style="fill:#476AFA;" d="M525.066,913.393c-2.173,0-4.346,0.019-6.518-0.007c-1.463-0.018-2.691-0.427-2.688-2.209
		c0.002-1.513,0.675-2.718,2.274-2.788c5.175-0.227,10.356-0.355,15.536-0.439c1.334-0.022,2.135,0.738,2.178,2.195
		c0.048,1.618-0.738,2.667-2.264,2.745c-2.832,0.145-5.677,0.042-8.517,0.042C525.066,913.086,525.066,913.24,525.066,913.393z"/>
	<path style="fill:#385EFA;" d="M623.097,907.263c2.522,0,5.045-0.059,7.565,0.021c1.575,0.05,2.441,0.961,2.446,2.595
		c0.006,1.727-0.989,2.368-2.565,2.354c-4.877-0.045-9.754-0.092-14.63-0.155c-1.882-0.024-2.751-1.047-2.653-2.887
		c0.094-1.754,1.26-2.163,2.774-2.148c2.354,0.023,4.709,0.006,7.063,0.006C623.097,907.121,623.097,907.192,623.097,907.263z"/>
</g>
</svg>
