<?xml version="1.0" encoding="utf-8"?>
<!-- Generator: Adobe Illustrator 22.0.1, SVG Export Plug-In . SVG Version: 6.00 Build 0)  -->
<svg version="1.1" id="Layer_1" xmlns="http://www.w3.org/2000/svg" xmlns:xlink="http://www.w3.org/1999/xlink" x="0px" y="0px"
	 viewBox="0 0 1920 1080" style="enable-background:new 0 0 1920 1080;" xml:space="preserve">
<style type="text/css">
	.st0{fill:none;}
	.st1{fill:#231F20;}
	.st2{opacity:0.6;fill:url(#SVGID_1_);enable-background:new    ;}
	.st3{opacity:0.1;fill:url(#SVGID_2_);enable-background:new    ;}
	.st4{opacity:0.6;fill:url(#SVGID_3_);enable-background:new    ;}
	.st5{opacity:0.8;fill:url(#SVGID_4_);enable-background:new    ;}
	.st6{opacity:0.8;fill:url(#SVGID_5_);enable-background:new    ;}
	.st7{fill:url(#SVGID_6_);}
	.st8{opacity:0.6;fill:url(#SVGID_7_);enable-background:new    ;}
</style>
<pattern  y="1080" width="48" height="48" patternUnits="userSpaceOnUse" id="_x36__dpi_10_x25_" viewBox="1.2 -49.2 48 48" style="overflow:visible;">
	<g>
		<rect x="1.2" y="-49.2" class="st0" width="48" height="48"/>
		<g>
			<rect x="1.2" y="-49.2" class="st0" width="48" height="48"/>
			<g>
				<circle class="st1" cx="25.2" cy="-49.2" r="1.2"/>
				<circle class="st1" cx="49.2" cy="-49.2" r="1.2"/>
				<circle class="st1" cx="25.2" cy="-25.2" r="1.2"/>
				<circle class="st1" cx="49.2" cy="-25.2" r="1.2"/>
				<circle class="st1" cx="37.2" cy="-37.2" r="1.2"/>
				<circle class="st1" cx="13.2" cy="-37.2" r="1.2"/>
				<circle class="st1" cx="37.2" cy="-13.2" r="1.2"/>
				<circle class="st1" cx="13.2" cy="-13.2" r="1.2"/>
			</g>
			<g>
				<circle class="st1" cx="1.2" cy="-49.2" r="1.2"/>
				<ellipse class="st1" cx="1.2" cy="-25.2" rx="1.2" ry="1.2"/>
			</g>
			<g>
				<circle class="st1" cx="25.2" cy="-1.2" r="1.2"/>
				<circle class="st1" cx="49.2" cy="-1.2" r="1.2"/>
			</g>
			<g>
				<ellipse class="st1" cx="1.2" cy="-1.2" rx="1.2" ry="1.2"/>
			</g>
		</g>
	</g>
</pattern>
<g>
	<pattern  id="SVGID_1_" xlink:href="#_x36__dpi_10_x25_" patternTransform="matrix(1 0 0 -1 -2206.0349 -11531.043)">
	</pattern>
	<path class="st2" d="M444.1,490.6c248.7,82.6,438.7-111.1,700.1-103c261.4,8.1,353,181.7,597,11.4
		C1958,247.7,1898.6-2.2,1731.1-83.9c-175.8-85.7-570.8,35.6-701.3,58.5C888.2-0.5,700.4-10,592.6-70.4
		c-130.3-73-344.9,35.4-391.5,177S195.4,408,444.1,490.6z"/>
	
		<linearGradient id="SVGID_2_" gradientUnits="userSpaceOnUse" x1="184.3223" y1="881.5093" x2="1881.4128" y2="881.5093" gradientTransform="matrix(1 0 0 -1 0 1080)">
		<stop  offset="0" style="stop-color:#2E4ABC"/>
		<stop  offset="0.1725" style="stop-color:#314EBE"/>
		<stop  offset="0.3427" style="stop-color:#3B5AC4"/>
		<stop  offset="0.5122" style="stop-color:#4A6ECD"/>
		<stop  offset="0.6812" style="stop-color:#6189DB"/>
		<stop  offset="0.8481" style="stop-color:#7DADEC"/>
		<stop  offset="1" style="stop-color:#9CD4FF"/>
	</linearGradient>
	<path class="st3" d="M444.1,490.6c248.7,82.6,438.7-111.1,700.1-103c261.4,8.1,353,181.7,597,11.4
		C1958,247.7,1898.6-2.2,1731.1-83.9c-175.8-85.7-570.8,35.6-701.3,58.5C888.2-0.5,700.4-10,592.6-70.4
		c-130.3-73-344.9,35.4-391.5,177S195.4,408,444.1,490.6z"/>
	
		<linearGradient id="SVGID_3_" gradientUnits="userSpaceOnUse" x1="703.6259" y1="136.6552" x2="1012.2381" y2="136.6552" gradientTransform="matrix(0.988 0.1543 0.1543 -0.988 70.5035 880.9779)">
		<stop  offset="0" style="stop-color:#385EFA"/>
		<stop  offset="0.5312" style="stop-color:#1878FB"/>
		<stop  offset="1" style="stop-color:#008CFB"/>
	</linearGradient>
	<path class="st4" d="M486.5,752.3c54.8-47.6,137.7-16.7,207.2-29.3c80.1-14.5,148.2-50.1,229.5-73.5
		c78.9-22.7,191.8,56.3,86.7,164.1C968.5,856,931,885.2,899.3,938.7c-35.3,59.5-61,114.1-128.8,133.1
		C599.3,1119.6,336.3,882.6,486.5,752.3z"/>
	
		<linearGradient id="SVGID_4_" gradientUnits="userSpaceOnUse" x1="3757.1633" y1="616.4457" x2="3487.0916" y2="-480.7313" gradientTransform="matrix(-0.727 0.6343 0.6748 0.7028 4750.1582 -1640.5387)">
		<stop  offset="0" style="stop-color:#385EFA"/>
		<stop  offset="0.6936" style="stop-color:#127DFB"/>
		<stop  offset="1" style="stop-color:#008CFB"/>
	</linearGradient>
	<path class="st5" d="M1738.9,1061.9c55.4,93.6,21.4,193.8,87,285.8c142.8,200.3,410.7,130.7,368.6-84.4
		c-21.4-109.4-84.8-211.9-92.5-322.9c-7.8-112.6,61.1-193.4,81.8-299.1c38.1-194.2-72.6-385.1,9.5-580.8
		c189.3-451.5,1-632.9-245.5-421.8c-206.2,176.7-17.7,494.9-276.7,728.1C1249.8,746.1,1618.3,858.3,1738.9,1061.9z"/>
	
		<linearGradient id="SVGID_5_" gradientUnits="userSpaceOnUse" x1="557.2625" y1="1070.6943" x2="792.3813" y2="291.8223" gradientTransform="matrix(0.9988 -4.880000e-02 -4.880000e-02 -0.9988 -142.8123 927.5715)">
		<stop  offset="0" style="stop-color:#385EFA"/>
		<stop  offset="0.5312" style="stop-color:#1878FB"/>
		<stop  offset="1" style="stop-color:#008CFB"/>
	</linearGradient>
	<path class="st6" d="M-312.2,55.4c86.8-165.2,223.9-200.2,392.4-202.4c144.1-1.9,488.9,64.1,618.4,3.8
		c129.1-60.1,214.8-162.6,357.8-162.3c191.8,0.5,283.4,149.1,280.8,298.4c-3.6,207-176.6,318.9-355.2,314.4
		c-147.8-3.7-304.5-10.9-430.2,89.7c-115.8,92.6-171,265.9-540.6,265.9S-472.7,361-312.2,55.4z"/>
</g>
<linearGradient id="SVGID_6_" gradientUnits="userSpaceOnUse" x1="1395" y1="1399.5081" x2="1395" y2="1399.5081" gradientTransform="matrix(1 0 0 -1 0 1080)">
	<stop  offset="0" style="stop-color:#385EFA"/>
	<stop  offset="0.5312" style="stop-color:#1878FB"/>
	<stop  offset="1" style="stop-color:#008CFB"/>
</linearGradient>
<path class="st7" d="M1395-319.5"/>
<linearGradient id="SVGID_7_" gradientUnits="userSpaceOnUse" x1="-248.2774" y1="-77.7913" x2="60.3349" y2="-77.7913" gradientTransform="matrix(-0.9946 -0.1034 -0.1034 0.9946 -491.0188 980.7758)">
	<stop  offset="0" style="stop-color:#385EFA"/>
	<stop  offset="0.5312" style="stop-color:#1878FB"/>
	<stop  offset="1" style="stop-color:#008CFB"/>
</linearGradient>
<path class="st8" d="M69.1,1015.8c-52.3,50.3-136.6,23.8-205.4,39.9c-79.2,18.5-145.5,57.6-225.5,85.2
	c-77.6,26.8-194.5-46.4-95-159.4c39.2-44.5,75.1-75.6,104-130.6c32.2-61.2,55.1-117.1,121.8-139.5
	C-62.4,654.8,212.4,878,69.1,1015.8z"/>
</svg>
